<?xml version="1.0" encoding="utf-8"?>
<!-- Generator: Adobe Illustrator 25.2.0, SVG Export Plug-In . SVG Version: 6.00 Build 0)  -->
<svg version="1.1" id="Camada_1" xmlns="http://www.w3.org/2000/svg" xmlns:xlink="http://www.w3.org/1999/xlink" x="0px" y="0px"
	 viewBox="0 0 431.76 433.92" style="enable-background:new 0 0 431.76 433.92;" xml:space="preserve">
<style type="text/css">
	.st0{fill-rule:evenodd;clip-rule:evenodd;fill:#23272D;}
	.st1{fill:none;stroke:#000000;stroke-width:0.162;}
	.st2{fill:none;stroke:#23272D;stroke-width:4.5001;}
	.st3{fill:none;stroke:#000000;stroke-width:0.3599;}
</style>
<g>
	<defs>
		<rect id="SVGID_1_" width="431.76" height="433.92"/>
	</defs>
	<clipPath id="SVGID_2_">
		<use xlink:href="#SVGID_1_"  style="overflow:visible;"/>
	</clipPath>
</g>
<path class="st0" d="M150.39,133.05c43.59-13.04,87.75-14.73,132.75,0l35.87-55.1l-51.77,13.31l-43.27-58.05l8.14-8.51l-14.79-14.05
	L202.53,24.7l8.13,8.51l-41.79,58.05L116,77.95L150.39,133.05z M202.9,94.96l14.06-14.05L231,94.96l-14.05,14.05L202.9,94.96z
	 M202.9,94.96"/>
<path class="st1" d="M150.39,133.05c43.59-13.04,87.75-14.73,132.75,0l35.87-55.1l-51.77,13.31l-43.27-58.05l8.14-8.51l-14.79-14.05
	L202.53,24.7l8.13,8.51l-41.79,58.05L116,77.95L150.39,133.05z M202.9,94.96l14.06-14.05L231,94.96l-14.05,14.05L202.9,94.96z
	 M202.9,94.96"/>
<path class="st2" d="M299.61,129.72c0.06,0.01,0.12,0.02,0.18,0.03c22.91,4,45.59,9.67,68.03,16.98
	c-12.92,116.12-45.59,217.44-150.87,274.38c-79.9-41.74-132.75-134.4-153.46-274.38c24.82-7.62,49.37-13.4,73.67-17.39
	c0.16-0.02,0.32-0.05,0.48-0.08"/>
<path class="st0" d="M86.42,162.26c95.52-36.15,182.32-32.94,262.55,0c-14.52,101.52-44.8,191.74-131.64,241.47
	C140.24,354.47,102.98,282.16,86.42,162.26L86.42,162.26z M194.77,234.74c-4.08-11.15-17.82-17.15-40.31-15.9
	c-4.82-0.88-6.54-2.68-6.51-7.26c-23.79,19.94-13.72,36.32,21.86,47.37c-13.02,19.87-12.59,32.48-5.73,40.5
	c21.42,0.9,38.02-6.2,49.92-21.08L190.7,253.6c-0.37-1.85,4.33-4.97,6.28-4.07c14.42,6.66,26.01,6.63,40.68,0
	c2.63-1.19,7.03,2.96,6.66,4.07l-22.92,24.78c10.32,14.95,27.35,21.92,51.39,20.91c5.27-11.7,4.97-24.57-7.77-39.94
	c33.55-14.97,48.41-30.26,21.46-46.8c-0.29,3.28-2.01,5.61-6.17,6.3c-22.03-0.12-35.76,3.32-38.57,16.63
	c-3.08-18.02,11.87-30.03,49.92-29.95c-12.62-27.37-34.38-42.22-74.33-32.17c-32.13-8.91-56.49,0.75-72.85,29.58
	C177.05,204.55,197.84,213.89,194.77,234.74L194.77,234.74z M217.32,334.96c-18.81,18.9-42.27-2.69-42.89-14.42
	c-0.66-12.38,25.89-31.43,42.89-22.19c27.73-8.5,42.7,14.48,43.49,22.31C261.92,331.72,237.04,353.74,217.32,334.96L217.32,334.96z
	 M217.32,334.96"/>
<path class="st3" d="M86.42,162.26c95.52-36.15,182.32-32.94,262.55,0c-14.52,101.52-44.8,191.74-131.64,241.47
	C140.24,354.47,102.98,282.16,86.42,162.26L86.42,162.26z M194.77,234.74c-4.08-11.15-17.82-17.15-40.31-15.9
	c-4.82-0.88-6.54-2.68-6.51-7.26c-23.79,19.95-13.72,36.32,21.86,47.37c-13.02,19.87-12.59,32.48-5.73,40.5
	c21.42,0.9,38.02-6.2,49.92-21.08L190.7,253.6c-0.37-1.85,4.33-4.97,6.28-4.07c14.42,6.66,26.01,6.63,40.68,0
	c2.63-1.19,7.03,2.96,6.66,4.07l-22.92,24.78c10.32,14.95,27.35,21.92,51.39,20.91c5.27-11.7,4.97-24.57-7.77-39.94
	c33.55-14.97,48.41-30.27,21.46-46.8c-0.29,3.28-2.01,5.61-6.17,6.3c-22.03-0.12-35.76,3.32-38.57,16.63
	c-3.08-18.02,11.87-30.03,49.92-29.95c-12.62-27.37-34.38-42.22-74.33-32.17c-32.13-8.91-56.49,0.75-72.85,29.58
	C177.05,204.55,197.84,213.89,194.77,234.74L194.77,234.74z M217.32,334.96c-18.81,18.9-42.27-2.69-42.89-14.42
	c-0.66-12.38,25.89-31.43,42.89-22.19c27.73-8.5,42.7,14.49,43.49,22.31C261.92,331.72,237.04,353.74,217.32,334.96L217.32,334.96z
	 M217.32,334.96"/>
</svg>
