<svg width="24" height="24" viewBox="0 0 24 24" fill="none" xmlns="http://www.w3.org/2000/svg">
<path d="M4 5C2.89543 5 2 5.89543 2 7V17C2 18.1046 2.89543 19 4 19H20C21.1046 19 22 18.1046 22 17V7C22 5.89543 21.1046 5 20 5H4Z" fill="#2A2A3E"/>
<path d="M9 16C11.2091 16 13 14.2091 13 12C13 9.79086 11.2091 8 9 8C6.79086 8 5 9.79086 5 12C5 14.2091 6.79086 16 9 16Z" fill="#DA4040"/>
<path d="M15 16C17.2091 16 19 14.2091 19 12C19 9.79086 17.2091 8 15 8C12.7909 8 11 9.79086 11 12C11 14.2091 12.7909 16 15 16Z" fill="#D99735"/>
<path fill-rule="evenodd" clip-rule="evenodd" d="M12 9.35419C11.3776 10.0593 11 10.9856 11 12C11 13.0145 11.3776 13.9407 12 14.6458C12.6224 13.9407 13 13.0145 13 12C13 10.9856 12.6224 10.0593 12 9.35419Z" fill="#DB7A34"/>
</svg>
