<svg  xmlns="http://www.w3.org/2000/svg" style="enable-background:new 0 0 587.58 188.11;" width="150" height="150" viewBox="0 0 600 200">
	<style type="text/css">
	.st0{fill:url(#SVGID_1_);}
  </style>
  <linearGradient id="SVGID_1_" gradientUnits="userSpaceOnUse" x1="1.894" y1="94.674" x2="585.3041" y2="94.674">
		<stop  offset="0" style="stop-color:#0A0141"/>
		<stop  offset="1" style="stop-color:#0F218B"/>
	</linearGradient>
  <path class="st0" d="m223.39 3.8-76.38 182.22h-49.82l-37.59-145.42c-2.28-8.95-4.25-12.24-11.2-16.01-11.33-6.15-30.04-11.93-46.51-15.5l1.11-5.29h80.23c10.22 0 19.41 6.79 21.74 18.57l19.85 105.45 49.06-124.02h49.51zm195.26 122.73c0.21-48.08-66.5-50.74-66.04-72.24 0.15-6.53 6.37-13.47 20-15.26 6.75-0.88 25.37-1.56 46.48 8.15l8.28-38.64c-11.35-4.12-25.94-8.08-44.1-8.08-46.6 0-79.39 24.77-79.66 60.24-0.31 26.25 23.41 40.87 41.28 49.59 18.36 8.93 24.51 14.66 24.44 22.65-0.13 12.23-14.65 17.63-28.22 17.84-23.7 0.37-37.45-6.4-48.42-11.51l-8.53 39.93c11 5.05 31.34 9.46 52.43 9.68 49.52 0 81.9-24.46 82.06-62.35m123.05 59.49h43.61l-38.06-182.22h-40.24c-9.05 0-16.69 5.25-20.06 13.36l-70.75 168.86h49.49l9.84-27.22h60.47l5.7 27.22zm-52.61-64.56 24.82-68.43 14.29 68.43h-39.11zm-198.33-117.66-38.99 182.22h-47.15l39-182.22h47.14z"/>
</svg>
