<?xml version="1.0" standalone="no"?>
<!DOCTYPE svg PUBLIC "-//W3C//DTD SVG 20010904//EN"
 "http://www.w3.org/TR/2001/REC-SVG-20010904/DTD/svg10.dtd">
<svg version="1.0" xmlns="http://www.w3.org/2000/svg"
 width="700.000000pt" height="700.000000pt" viewBox="0 0 700.000000 700.000000"
 preserveAspectRatio="xMidYMid meet">
<metadata>
Created by potrace 1.14, written by Peter Selinger 2001-2017
</metadata>
<g transform="translate(0.000000,700.000000) scale(0.100000,-0.100000)"
fill="#000000" stroke="none">
<path d="M3454 6769 c-37 -35 -91 -87 -121 -114 l-53 -50 65 -69 c36 -38 62
-73 58 -80 -4 -6 -41 -58 -82 -116 -164 -229 -241 -336 -258 -359 -10 -13 -31
-42 -48 -66 -91 -130 -278 -385 -282 -385 -3 0 -132 32 -287 71 -154 39 -288
72 -296 74 -8 2 -71 17 -139 34 -68 17 -125 30 -127 28 -3 -2 89 -153 150
-247 32 -48 199 -315 211 -337 6 -10 50 -82 99 -161 101 -161 80 -150 216
-112 96 27 85 25 225 54 144 29 208 40 305 52 30 3 69 8 85 10 201 24 503 23
725 -1 60 -7 281 -41 318 -50 12 -3 32 -7 45 -10 60 -13 189 -47 247 -65 36
-11 68 -20 73 -20 6 0 209 299 227 335 3 6 27 44 54 85 27 41 92 140 144 220
52 80 109 168 127 195 18 28 32 51 31 52 -1 1 -166 -38 -216 -51 -8 -3 -53
-14 -100 -26 -47 -11 -92 -23 -100 -25 -8 -2 -60 -16 -115 -30 -55 -14 -107
-28 -115 -30 -109 -28 -176 -45 -183 -45 -4 0 -161 206 -349 458 -187 251
-344 462 -349 467 -5 7 18 38 58 79 l67 68 -91 87 c-49 47 -104 99 -121 115
l-31 29 -67 -64z m174 -1416 l-113 -113 -112 112 -113 113 112 112 113 113
112 -112 113 -113 -112 -112z"/>
<path d="M2130 4929 c-19 -4 -52 -10 -72 -13 -21 -3 -58 -10 -83 -16 -25 -6
-62 -13 -83 -16 -20 -3 -39 -7 -42 -9 -3 -2 -25 -6 -50 -10 -25 -4 -47 -8 -51
-10 -3 -2 -19 -6 -35 -9 -78 -14 -465 -115 -619 -162 -27 -9 -60 -18 -73 -21
-12 -3 -24 -9 -27 -13 -5 -9 37 -304 50 -350 5 -16 10 -48 20 -120 4 -24 8
-47 10 -51 2 -3 7 -21 10 -40 3 -19 13 -68 21 -109 9 -41 18 -86 20 -100 14
-72 90 -380 134 -539 263 -964 679 -1788 1193 -2364 298 -333 587 -570 953
-777 103 -59 110 -61 134 -47 14 8 52 29 85 47 379 207 807 558 1104 904 135
158 312 400 387 531 6 11 35 61 64 110 123 210 273 535 369 798 48 133 127
380 154 482 3 11 13 45 21 75 41 144 144 616 162 740 2 19 7 44 9 56 3 12 7
39 10 60 4 21 8 50 11 64 5 31 22 148 38 260 3 19 8 58 11 85 3 28 8 61 10 75
3 14 7 50 10 80 3 30 8 71 11 91 5 36 4 37 -38 53 -74 27 -286 90 -478 142
-30 8 -266 63 -290 68 -14 2 -45 9 -70 15 -25 5 -61 13 -80 16 -19 3 -62 11
-95 17 -87 18 -87 17 -92 -23 l-3 -36 52 -8 c29 -5 60 -9 68 -10 8 -1 47 -9
85 -18 39 -9 86 -19 105 -22 64 -11 361 -86 484 -122 66 -19 128 -36 136 -38
64 -14 134 -44 136 -58 2 -13 -22 -211 -40 -337 -31 -212 -41 -274 -61 -390
-14 -74 -26 -146 -29 -160 -2 -14 -7 -36 -10 -50 -3 -14 -8 -36 -10 -50 -3
-14 -16 -77 -30 -140 -294 -1325 -826 -2240 -1682 -2891 -139 -106 -376 -259
-524 -338 -15 -9 -42 4 -165 76 -116 69 -387 261 -450 319 -11 11 -51 46 -89
79 -65 57 -255 246 -311 310 -466 532 -811 1173 -1085 2010 -66 203 -152 517
-200 730 -7 28 -13 57 -15 65 -4 15 -42 195 -49 234 -8 37 -35 180 -41 211
-11 62 -34 201 -38 230 -3 17 -8 46 -12 66 -8 41 -2 44 105 73 149 39 221 58
285 76 169 47 503 119 698 150 61 10 77 16 73 27 -4 8 -6 23 -6 34 0 21 -26
23 -100 8z"/>
<path d="M3378 4796 c-1 -2 -64 -6 -138 -10 -129 -7 -159 -9 -260 -22 -25 -3
-65 -8 -90 -9 -25 -2 -58 -6 -75 -9 -32 -5 -133 -21 -200 -31 -135 -21 -548
-116 -670 -155 -33 -10 -118 -37 -190 -60 -71 -22 -181 -59 -243 -81 l-113
-42 6 -56 c3 -31 7 -63 10 -71 2 -8 6 -35 9 -60 3 -25 8 -56 11 -70 3 -14 8
-45 11 -70 3 -25 10 -65 15 -90 6 -25 13 -61 15 -79 6 -42 51 -272 64 -321 5
-19 11 -46 14 -60 9 -50 68 -288 102 -410 113 -406 289 -846 459 -1145 30 -54
55 -99 55 -101 0 -18 256 -392 320 -467 10 -12 46 -55 79 -96 221 -266 535
-544 859 -760 l93 -62 47 27 c249 144 498 338 723 563 263 263 486 570 682
941 186 351 350 799 476 1297 39 153 113 492 125 578 4 22 8 47 11 55 2 8 6
31 9 50 2 19 14 89 25 155 11 66 23 138 26 160 3 22 8 52 10 66 6 24 1 27 -77
58 -339 134 -684 233 -1048 300 -146 27 -181 33 -297 47 -27 3 -55 7 -63 9 -8
2 -60 7 -115 10 -55 4 -104 9 -108 12 -9 5 -563 14 -569 9z m-13 -570 c50 -9
105 -20 122 -25 24 -7 57 -4 124 9 448 92 785 -22 997 -338 54 -80 115 -192
105 -193 -4 0 -48 -2 -98 -4 -430 -21 -665 -142 -702 -360 -10 -58 -1 -143 11
-110 34 90 59 123 126 164 87 53 208 77 416 84 112 4 146 17 166 65 7 15 13
29 14 30 5 7 91 -57 133 -99 183 -182 62 -376 -364 -585 -143 -70 -132 -64
-119 -72 13 -9 85 -116 109 -161 61 -120 77 -251 45 -378 -11 -42 -24 -81 -30
-87 -11 -11 -130 -12 -227 -1 -244 25 -457 134 -576 295 l-26 35 62 65 c214
227 306 329 307 341 0 10 -34 45 -55 56 -26 13 -45 10 -140 -25 -178 -66 -342
-62 -525 12 -65 27 -93 24 -132 -11 -28 -25 -22 -41 45 -112 245 -257 306
-323 307 -333 0 -3 -40 -44 -89 -90 -168 -158 -358 -232 -628 -242 l-82 -4
-25 38 c-50 76 -61 184 -32 301 18 71 81 209 125 274 l29 43 -92 32 c-115 41
-252 108 -314 153 -112 84 -157 158 -156 258 0 56 6 75 37 130 39 69 143 183
158 174 5 -4 9 -14 9 -23 0 -9 6 -24 13 -33 25 -33 59 -41 191 -44 72 -1 145
-5 161 -8 17 -4 45 -9 63 -12 54 -9 144 -46 199 -82 51 -34 86 -72 116 -128
16 -30 16 -30 18 -5 7 104 -12 176 -65 245 -37 48 -46 56 -111 99 -118 78
-336 135 -575 150 -63 4 -64 7 -17 81 160 251 406 414 667 441 36 3 66 7 67 8
7 6 166 -6 238 -18z m112 -2041 c37 -14 50 -14 115 -2 147 27 291 2 403 -71
120 -77 225 -226 225 -318 0 -58 -42 -135 -109 -196 -174 -161 -389 -179 -553
-47 l-38 30 -27 -26 c-16 -15 -55 -40 -87 -57 -150 -76 -323 -35 -466 112 -63
64 -101 133 -108 196 -16 144 237 365 448 391 25 3 46 6 48 8 9 7 113 -7 149
-20z"/>
</g>
</svg>
